<svg id="Слой_1" data-name="Слой 1" xmlns="http://www.w3.org/2000/svg" viewBox="0 0 53.58 53.77"><defs><style>.cls-1{fill:#010101;}</style></defs><path class="cls-1" d="M51.66,77.26a26.6,26.6,0,0,1-18.95-7.87,27,27,0,0,1,0-38A26.56,26.56,0,0,1,51.66,23.5h0a26.56,26.56,0,0,1,19,7.87,27,27,0,0,1,0,38A26.6,26.6,0,0,1,51.66,77.26Zm0-51.09A24,24,0,0,0,34.6,33.26a24.29,24.29,0,0,0,0,34.24,24.07,24.07,0,0,0,34.12,0h0a24.29,24.29,0,0,0,0-34.24A23.93,23.93,0,0,0,51.66,26.17Z" transform="translate(-24.87 -23.5)"/><path class="cls-1" d="M41.25,62.16a1.34,1.34,0,0,1-1-2.28L61.13,39A1.33,1.33,0,1,1,63,40.87L42.19,61.77A1.33,1.33,0,0,1,41.25,62.16Z" transform="translate(-24.87 -23.5)"/><path class="cls-1" d="M62.08,62.16a1.33,1.33,0,0,1-.95-.39L40.3,40.87A1.33,1.33,0,1,1,42.19,39L63,59.88a1.34,1.34,0,0,1,0,1.89A1.33,1.33,0,0,1,62.08,62.16Z" transform="translate(-24.87 -23.5)"/></svg>