<?xml version="1.0" encoding="UTF-8"?>
<svg width="274px" height="274px" viewBox="0 0 274 274" version="1.1" xmlns="http://www.w3.org/2000/svg" xmlns:xlink="http://www.w3.org/1999/xlink">
    <title>Group</title>
    <g id="Page-2" stroke="none" stroke-width="1" fill="none" fill-rule="evenodd">
        <g id="Artboard" transform="translate(-154.000000, -83.000000)" fill="#000105">
            <g id="Group" transform="translate(154.813000, 83.813500)">
                <path d="M207.996169,49 C199.163036,49 192,56.1630357 192,64.9961695 C192,73.8369643 199.163036,81 207.996169,81 C216.836964,81 224,73.8369643 224,64.9961695 C224,56.1630357 216.836964,49 207.996169,49" id="Fill-163"></path>
                <path d="M137.187,179.1865 C113.47579,179.1865 94.187,159.89771 94.187,136.178849 C94.187,112.47529 113.47579,93.1865 137.187,93.1865 C160.89821,93.1865 180.187,112.47529 180.187,136.178849 C180.187,159.89771 160.89821,179.1865 137.187,179.1865 Z M137.183182,69.1865 C100.237151,69.1865 70.187,99.2442877 70.187,136.182682 C70.187,173.128712 100.237151,203.1865 137.183182,203.1865 C174.129212,203.1865 204.187,173.128712 204.187,136.182682 C204.187,99.2442877 174.129212,69.1865 137.183182,69.1865 L137.183182,69.1865 Z" id="Fill-164"></path>
                <path d="M81.3329046,25.1865 C50.3716627,25.1865 25.187,50.3788037 25.187,81.3476866 L25.187,190.032954 C25.187,220.994196 50.3716627,246.1865 81.3329046,246.1865 L190.018172,246.1865 C220.987055,246.1865 246.187,220.994196 246.187,190.032954 L246.187,81.3476866 C246.187,50.3788037 220.987055,25.1865 190.018172,25.1865 L81.3329046,25.1865 Z M190.478585,272.1865 L81.8801455,272.1865 C36.8343924,272.1865 0.187,235.532502 0.187,190.488013 L0.187,81.8926218 C0.187,36.8404984 36.8343924,0.1865 81.8801455,0.1865 L190.478585,0.1865 C235.524338,0.1865 272.187,36.8404984 272.187,81.8926218 L272.187,190.488013 C272.187,235.532502 235.524338,272.1865 190.478585,272.1865 L190.478585,272.1865 Z" id="Fill-165"></path>
            </g>
        </g>
    </g>
</svg>