<svg id="Слой_1" data-name="Слой 1" xmlns="http://www.w3.org/2000/svg" viewBox="0 0 53.28 53.26"><defs><style>.cls-1{fill:#010101;}</style></defs><path class="cls-1" d="M48.63,70A23.64,23.64,0,0,1,25,46.53,23.13,23.13,0,0,1,31.8,30,23.57,23.57,0,0,1,71.87,46.71,23.2,23.2,0,0,1,48.63,70Zm-.39-44.19A20.52,20.52,0,0,0,27.65,46.52,20.93,20.93,0,0,0,63.2,61.38a20.5,20.5,0,0,0,6-14.66,21,21,0,0,0-21-20.87Z" transform="translate(-25 -23.2)"/><path class="cls-1" d="M77,76.46a1.33,1.33,0,0,1-.94-.39L63.2,63.25a1.32,1.32,0,1,1,1.87-1.87L77.89,74.2a1.32,1.32,0,0,1,0,1.87A1.3,1.3,0,0,1,77,76.46Z" transform="translate(-25 -23.2)"/></svg>