<svg xmlns="http://www.w3.org/2000/svg" xmlns:xlink="http://www.w3.org/1999/xlink" width="33.09" height="33.125" viewBox="0 0 33.09 33.125">
  <defs>
    <style>
      .cls-1 {
        fill-rule: evenodd;
        filter: url(#filter);
      }
    </style>
    <filter id="filter" x="1184.16" y="720.469" width="33.09" height="33.125" filterUnits="userSpaceOnUse">
      <feFlood result="flood" flood-color="#4b4e53"/>
      <feComposite result="composite" operator="in" in2="SourceGraphic"/>
      <feBlend result="blend" in2="SourceGraphic"/>
    </filter>
  </defs>
  <path id="Forma_1" data-name="Forma 1" class="cls-1" d="M1197.55,728.053c-0.43-4.965-5.6-7.4-5.82-7.5a1.119,1.119,0,0,0-.66-0.088c-5.97.991-6.87,4.472-6.9,4.617a1.148,1.148,0,0,0,.02.61c7.12,22.13,21.93,26.23,26.79,27.581l0.92,0.265,0.35,0.052,0.47-.1c0.15-.069,3.66-1.726,4.52-7.138a1.1,1.1,0,0,0-.11-0.69,10.656,10.656,0,0,0-7.01-4.893,1.1,1.1,0,0,0-1,.238c-1.61,1.375-3.83,2.843-4.79,2.993-6.43-3.147-10.02-9.188-10.16-10.334-0.08-.644,1.4-2.906,3.09-4.746A1.14,1.14,0,0,0,1197.55,728.053Z" transform="translate(-1184.16 -720.469)"/>
</svg>
