<?xml version="1.0" encoding="UTF-8"?>
<svg width="331px" height="273px" viewBox="0 0 331 273" version="1.1" xmlns="http://www.w3.org/2000/svg" xmlns:xlink="http://www.w3.org/1999/xlink">
    <title>Fill 167</title>
    <g id="Page-2" stroke="none" stroke-width="1" fill="none" fill-rule="evenodd">
        <g id="Artboard" transform="translate(-125.000000, -83.000000)" fill="#fff">
            <path d="M454.29267,116.421451 C443.817264,121.162614 432.221127,124.040904 420.914704,125.949584 C426.282015,125.041052 434.165253,115.314417 437.321598,111.3749 C442.147603,105.374009 446.142591,98.5332984 448.399301,91.1505225 C448.689014,90.5702836 448.910111,89.8449851 448.323061,89.4098059 C447.606403,89.1196865 447.133714,89.2723809 446.561912,89.5625004 C433.944156,96.3344985 420.884208,101.243625 406.985616,104.717423 C405.842013,105.007542 404.980499,104.717423 404.256217,103.999759 C403.104989,102.694222 402.022378,101.472666 400.802535,100.457248 C394.95491,95.4794097 388.695589,91.5780669 381.628121,88.6921421 C372.364935,84.9129548 362.217362,83.3096633 352.237518,83.9509799 C342.509266,84.5846618 332.971616,87.3331616 324.348847,91.8376474 C315.703207,96.3650374 307.987697,102.656048 301.842736,110.252596 C295.491926,118.10109 290.810777,127.369642 288.40921,137.195529 C286.099131,146.677853 286.282108,156.060926 287.700176,165.642502 C287.906024,167.238159 287.768792,167.451931 286.327852,167.238159 C231.983827,159.137719 186.941108,139.669179 150.368676,97.9377901 C148.78288,96.128361 147.921366,96.128361 146.617658,98.0752151 C130.614837,122.09405 138.376091,160.679933 158.373899,179.652217 C161.042307,182.179309 163.77933,184.706402 166.729827,187.012088 C165.647216,187.233495 152.350922,185.790533 140.487945,179.652217 C138.902148,178.644433 138.10925,179.217037 137.964394,181.026466 C137.819537,183.622272 138.040634,186.01194 138.398963,188.821517 C141.463819,213.168645 158.305283,235.691074 181.367948,244.478639 C184.104972,245.631482 187.139332,246.6469 190.082205,247.150791 C184.829254,248.303634 179.416198,249.128184 164.351132,247.944802 C162.475623,247.58597 161.758965,248.525041 162.475623,250.326835 C173.804919,281.232189 198.239908,290.432029 216.545183,295.661813 C218.992494,296.096992 221.447429,296.096992 223.902364,296.669596 C223.749883,296.891003 223.605027,296.891003 223.460171,297.104775 C217.39145,306.373327 196.34915,313.267481 186.537035,316.703106 C168.719696,322.940674 149.308938,325.750251 130.46998,323.887379 C127.450868,323.444565 126.818074,323.482739 126.002304,323.887379 C125.178909,324.398905 125.895567,325.124204 126.863818,325.902946 C130.691077,328.437673 134.579328,330.674647 138.551443,332.842908 C150.513533,339.187361 162.986432,344.249182 176.031133,347.860405 C243.389363,366.489126 319.278873,352.80007 369.856632,302.471985 C409.577784,262.94703 423.506871,208.450387 423.506871,153.877396 C423.506871,151.747309 426.022798,150.563927 427.509482,149.433988 C437.847655,141.661841 446.188335,132.355116 453.896221,121.964259 C455.619249,119.635669 455.642122,117.559025 455.642122,116.703936 C455.642122,116.558876 455.642122,116.421451 455.642122,116.421451 C455.642122,115.543458 455.619249,115.810674 454.29267,116.421451" id="Fill-167"></path>
        </g>
    </g>
</svg>