<svg xmlns="http://www.w3.org/2000/svg" width="33.157" height="33.156"><defs><filter id="a" x="445.312" y="720.438" width="33.157" height="33.156" filterUnits="userSpaceOnUse"><feFlood result="flood" flood-color="#4b4e53"/><feComposite result="composite" operator="in" in2="SourceGraphic"/><feBlend result="blend" in2="SourceGraphic"/></filter></defs><path data-name="Forma 1" d="M476.859 724.621l-9.327-4.145-.449-.05-.405.04-9.977 4.06-8.857-4.05-.452-.05a2.075 2.075 0 00-2.072 2.073v24.872a2.076 2.076 0 001.621 2.024l9.283 4.146.452.048.4-.04 9.979-4.061 8.9 4.053.452.048a2.075 2.075 0 002.073-2.073v-24.872a2.073 2.073 0 00-1.621-2.023zm-19.1 1.594l8.291-3.3v24.873l-8.291 3.3v-24.873zm-10.367-3.715l8.291 3.7v24.872l-8.291-3.7V722.5zm29.018 29.017l-8.291-3.683v-24.875l8.291 3.685v24.872z" transform="translate(-445.312 -720.438)" fill-rule="evenodd" filter="url(#a)"/></svg>