<svg width="72" height="36" viewBox="0 0 72 36" fill="none" xmlns="http://www.w3.org/2000/svg">
<g clip-path="url(#clip0_306_322)">
<path d="M6.24095 6.48174H2.56988L1.87332 8.21019H-0.00927734L3.51118 0.144043H5.31848L8.886 8.24861H7.0034L6.24095 6.48174ZM5.66676 5.06055L4.41483 1.97814L3.1629 5.06055H5.66676Z" fill="white"/>
<path d="M18.0166 8.24852V3.44724L15.6916 7.43229H14.8632L12.557 3.59127V8.24852H10.8345V0.182373H12.35L15.3056 5.19491L18.2237 0.182373H19.7297V8.24852H18.0166Z" fill="white"/>
<path d="M28.8509 6.7121V8.24852H22.7324V0.182373H28.7097V1.68037H24.5491V3.42804H28.2202V4.87801H24.5491V6.75052L28.8509 6.7121Z" fill="white"/>
<path d="M36.4753 8.2487L34.9504 6.00171H33.2749V8.2487H31.4771V0.182558H34.9034C35.53 0.166532 36.1527 0.287679 36.7295 0.537848C37.2237 0.749351 37.6457 1.10507 37.9424 1.56035C38.2392 2.01563 38.3975 2.5502 38.3975 3.09694C38.3975 3.64368 38.2392 4.17822 37.9424 4.6335C37.6457 5.08878 37.2237 5.4445 36.7295 5.656L38.4991 8.2487H36.4753ZM36.0141 2.06465C35.6526 1.79499 35.2088 1.66561 34.7622 1.69975H33.2749V4.51329H34.7622C35.2088 4.54743 35.6526 4.41808 36.0141 4.14842C36.1593 4.02087 36.2738 3.86104 36.3488 3.68124C36.4239 3.50145 36.4575 3.30646 36.4471 3.11133C36.4666 2.9082 36.4374 2.70326 36.362 2.51421C36.2866 2.32517 36.1672 2.15769 36.0141 2.02623V2.06465Z" fill="white"/>
<path d="M40.8901 0.144043H42.7727V8.24861H40.8901V0.144043Z" fill="white"/>
<path d="M47.3096 7.8068C46.6708 7.46909 46.1364 6.95716 45.7659 6.32799C45.4021 5.67185 45.2109 4.93086 45.2109 4.17703C45.2109 3.42321 45.4021 2.68218 45.7659 2.02604C46.1358 1.39397 46.6702 0.878803 47.3096 0.537653C47.9853 0.174464 48.7392 -0.0104005 49.5029 -8.84352e-05C50.1495 -0.0147416 50.7916 0.112978 51.3855 0.374396C51.9295 0.606166 52.4107 0.968535 52.788 1.43068L51.6114 2.53497C51.3719 2.23348 51.0691 1.99071 50.7253 1.82451C50.3816 1.65831 50.0056 1.57294 49.6252 1.57472C49.1657 1.56531 48.7116 1.67784 48.3074 1.90123C47.927 2.12944 47.6171 2.46219 47.4132 2.86149C47.202 3.27343 47.0918 3.73137 47.0918 4.19623C47.0918 4.66108 47.202 5.11905 47.4132 5.531C47.6132 5.93312 47.924 6.26688 48.3074 6.49125C48.7107 6.71798 49.1648 6.83378 49.6252 6.82732C50.0057 6.82979 50.3819 6.74474 50.7258 6.57849C51.0696 6.41225 51.3723 6.16908 51.6114 5.86706L52.788 6.97138C52.4115 7.43916 51.9306 7.80797 51.3855 8.04686C50.7891 8.29891 50.1483 8.42312 49.5029 8.41176C48.7327 8.40787 47.9768 8.19937 47.3096 7.8068Z" fill="white"/>
<path d="M60.1678 6.48174H56.4968L55.7908 8.21019H53.9082L57.4381 0.144043H59.2454L62.7752 8.21019H60.8926L60.1678 6.48174ZM59.5936 5.06055L58.3323 1.97814L57.0804 5.06055H59.5936Z" fill="white"/>
<path d="M71.9528 0.144043V8.24861H70.4562L66.5121 3.35129V8.24861H64.7048V0.182461H66.305L70.2303 5.07977V0.182461L71.9528 0.144043Z" fill="white"/>
<path d="M7.94449 18.5713C8.20433 18.9395 8.33678 19.3854 8.321 19.8388C8.33625 20.1578 8.26959 20.4753 8.1276 20.76C7.98562 21.0446 7.77324 21.2865 7.51148 21.4617C6.80234 21.8923 5.98174 22.0932 5.15823 22.0378H1.073V14.0101H4.93233C5.71252 13.9591 6.48892 14.1571 7.1538 14.5766C7.39915 14.7431 7.5988 14.9707 7.73387 15.2379C7.86893 15.505 7.93494 15.803 7.92566 16.1034C7.93499 16.4718 7.84023 16.8351 7.65269 17.1501C7.46589 17.461 7.19885 17.7135 6.88081 17.8799C7.29525 17.9965 7.66581 18.2373 7.94449 18.5713ZM2.88971 15.3736V17.2942H4.70641C5.06699 17.3171 5.42644 17.2338 5.74185 17.0541C5.85379 16.9751 5.94438 16.8685 6.00525 16.7443C6.06613 16.6201 6.09532 16.4822 6.09013 16.3435C6.09712 16.2044 6.06873 16.0659 6.0077 15.9414C5.94667 15.8169 5.85508 15.7106 5.74185 15.6329C5.42644 15.4532 5.06699 15.3698 4.70641 15.3928L2.88971 15.3736ZM6.11836 20.3862C6.23875 20.3053 6.3361 20.1935 6.40056 20.062C6.46501 19.9305 6.4943 19.7839 6.48547 19.6371C6.48547 18.9746 5.99599 18.6769 5.02645 18.6769H2.88971V20.6646H5.02645C5.38985 20.6683 5.74751 20.5722 6.06189 20.3862H6.11836Z" fill="white"/>
<path d="M18.0542 20.54V22.038H11.9358V14.0103H17.913V15.5083H13.7525V17.2559H17.4236V18.7059H13.7525V20.5784L18.0542 20.54Z" fill="white"/>
<path d="M26.9778 20.3094H23.3067L22.6101 22.0378H20.7275L24.248 13.9717H26.0553L29.5946 22.0378H27.712L26.9778 20.3094ZM26.4036 18.8882L25.1516 15.8058L23.9468 18.8882H26.4036Z" fill="white"/>
<path d="M33.3597 21.2218C33.0301 20.8539 32.7768 20.4218 32.615 19.9515C32.4533 19.4812 32.3864 18.9824 32.4184 18.4851V14.0103H34.301V18.4562C34.301 19.8966 34.8846 20.6264 36.0613 20.6264C36.3039 20.6404 36.5465 20.6004 36.7725 20.5092C36.9984 20.418 37.2022 20.2778 37.3697 20.0983C37.7099 19.6246 37.8704 19.0413 37.8215 18.4562V14.0103H39.6288V18.5235C39.6587 19.0206 39.5908 19.5188 39.4291 19.9888C39.2675 20.4588 39.0153 20.8911 38.6875 21.2602C37.9395 21.8751 37.0078 22.2105 36.0472 22.2105C35.0865 22.2105 34.1548 21.8751 33.4068 21.2602L33.3597 21.2218Z" fill="white"/>
<path d="M45.1731 15.4891H42.6504V14.0103H49.5407V15.5274H47.0086V22.0764H45.1731V15.4891Z" fill="white"/>
<path d="M56.4309 19.1763V22.0571H54.5954V19.1763L51.5361 13.991H53.4846L55.5931 17.5727L57.7017 13.991H59.4995L56.4309 19.1763Z" fill="white"/>
<path d="M6.37263 31.7075H8.04814V34.9724C7.60115 35.3167 7.0975 35.5769 6.56089 35.7406C6.00529 35.9118 5.42813 35.9992 4.84773 35.9999C4.07763 36.0147 3.31647 35.8296 2.63567 35.4621C1.99946 35.1242 1.46815 34.6121 1.10136 33.9833C0.731235 33.3294 0.536377 32.5875 0.536377 31.8324C0.536377 31.0772 0.731235 30.3354 1.10136 29.6814C1.46777 29.0431 2.00709 28.5262 2.65449 28.193C3.34331 27.8289 4.10967 27.6442 4.88538 27.6553C5.53059 27.6463 6.17093 27.7704 6.76798 28.0202C7.321 28.241 7.81233 28.5972 8.19876 29.0572L7.0033 30.1615C6.58033 29.6972 6.01902 29.3881 5.40637 29.2822C4.79372 29.1763 4.16394 29.2795 3.61462 29.5758C3.22046 29.7754 2.89296 30.0894 2.67332 30.4784C2.44565 30.8911 2.3318 31.359 2.34387 31.8324C2.33333 32.2995 2.44719 32.7608 2.67332 33.1671C2.89149 33.5597 3.21914 33.8772 3.61462 34.0794C4.0213 34.3061 4.47846 34.4218 4.94185 34.4155C5.43662 34.4242 5.92555 34.3053 6.36322 34.0698L6.37263 31.7075Z" fill="white"/>
<path d="M15.908 35.8657L14.3831 33.6187H12.7076V35.8657H10.8721V27.7995H14.2984C14.925 27.7835 15.5477 27.9047 16.1245 28.1548C16.6187 28.3663 17.0407 28.722 17.3375 29.1773C17.6342 29.6326 17.7925 30.1671 17.7925 30.7139C17.7925 31.2606 17.6342 31.7952 17.3375 32.2505C17.0407 32.7058 16.6187 33.0615 16.1245 33.273L17.8942 35.8657H15.908ZM15.4468 29.6816C15.0853 29.412 14.6414 29.2826 14.1949 29.3167H12.7076V32.1303H14.1949C14.6414 32.1644 15.0853 32.035 15.4468 31.7654C15.5919 31.6378 15.7064 31.478 15.7815 31.2982C15.8566 31.1184 15.8902 30.9234 15.8798 30.7283C15.8966 30.5338 15.8688 30.3379 15.7985 30.1562C15.7283 29.9745 15.6175 29.8121 15.475 29.6816H15.4468Z" fill="white"/>
<path d="M21.9135 35.4623C21.4369 35.1919 21.0179 34.8272 20.6813 34.3894C20.3447 33.9516 20.0973 33.4496 19.9535 32.9129C19.8097 32.3762 19.7724 31.8156 19.8439 31.264C19.9154 30.7124 20.0942 30.1809 20.3698 29.7008C20.7374 29.0668 21.2723 28.551 21.9135 28.2124C22.5993 27.8527 23.3592 27.665 24.1303 27.665C24.9014 27.665 25.6613 27.8527 26.3471 28.2124C26.9865 28.5535 27.5209 29.0687 27.8908 29.7008C28.173 30.1792 28.3571 30.711 28.4321 31.264C28.5071 31.8171 28.4714 32.3799 28.3271 32.9184C28.1828 33.457 27.9329 33.9601 27.5926 34.3973C27.2523 34.8346 26.8286 35.1969 26.3471 35.4623C25.6596 35.816 24.9003 36.0003 24.1303 36.0003C23.3603 36.0003 22.6011 35.816 21.9135 35.4623ZM25.3964 34.0795C25.7726 33.8706 26.0803 33.5534 26.2812 33.1673C26.497 32.7569 26.61 32.2983 26.61 31.8325C26.61 31.3668 26.497 30.9082 26.2812 30.4978C26.0837 30.097 25.7763 29.7634 25.3964 29.5376C25.0074 29.3232 24.5724 29.211 24.1303 29.211C23.6883 29.211 23.2532 29.3232 22.8643 29.5376C22.4867 29.7664 22.18 30.0992 21.9794 30.4978C21.7683 30.9098 21.658 31.3677 21.658 31.8325C21.658 32.2974 21.7683 32.7554 21.9794 33.1673C22.1833 33.551 22.4903 33.8675 22.8643 34.0795C23.2513 34.2999 23.6871 34.4155 24.1303 34.4155C24.5735 34.4155 25.0093 34.2999 25.3964 34.0795Z" fill="white"/>
<path d="M31.8441 35.0493C31.5145 34.6814 31.2612 34.2493 31.0994 33.779C30.9376 33.3087 30.8708 32.8099 30.9028 32.3125V27.7993H32.7289V32.2549C32.7289 33.6953 33.322 34.4251 34.4892 34.4251C34.7319 34.4404 34.9749 34.401 35.2011 34.3098C35.4272 34.2185 35.6308 34.0775 35.7976 33.8969C36.1377 33.4233 36.2983 32.84 36.2494 32.2549V27.8089H38.0661V32.3221C38.0976 32.8194 38.0305 33.3181 37.8687 33.7883C37.707 34.2585 37.454 34.6907 37.1248 35.0589C36.3791 35.6748 35.4487 36.0108 34.4892 36.0108C33.5297 36.0108 32.5993 35.6748 31.8535 35.0589L31.8441 35.0493Z" fill="white"/>
<path d="M46.2462 28.1546C46.7323 28.3655 47.1453 28.72 47.4322 29.1725C47.7235 29.6358 47.8711 30.1779 47.8558 30.7281C47.8774 31.2634 47.7466 31.7937 47.4793 32.2549C47.1924 32.7074 46.7793 33.0619 46.2932 33.2728C45.7143 33.5149 45.0926 33.6326 44.4671 33.6185H42.8763V35.8462H41.0408V27.7801H44.4671C45.0792 27.7769 45.6852 27.9045 46.2462 28.1546ZM45.5684 31.7556C45.7139 31.6304 45.8289 31.4724 45.904 31.294C45.9792 31.1157 46.0125 30.9219 46.0014 30.7281C46.0148 30.5312 45.9826 30.3339 45.9073 30.152C45.8321 29.9702 45.716 29.809 45.5684 29.6814C45.2069 29.4117 44.7631 29.2824 44.3165 29.3165H42.8292V32.1204H44.3165C44.7725 32.1616 45.2276 32.0319 45.5967 31.7556H45.5684Z" fill="white"/>
</g>
<defs>
<clipPath id="clip0_306_322">
<rect width="72" height="36" fill="white"/>
</clipPath>
</defs>
</svg>
