<svg data-name="Слой 1" xmlns="http://www.w3.org/2000/svg" width="100" viewBox="0 0 76.49 37.49"><path d="M6.63 6.75h-3.9l-.74 1.8h-2L3.73.15h1.92l3.79 8.44h-2zm-.61-1.48L4.69 2.06 3.36 5.27zm13.12 3.32v-5l-2.47 4.15h-.88l-2.45-4v4.85h-1.83V.19h1.61l3.14 5.22 3.1-5.22h1.6v8.4zm11.51-1.6v1.6h-6.5V.19h6.35v1.56h-4.42v1.82h3.9v1.51h-3.9v1.95zm8.1 1.6l-1.62-2.34h-1.78v2.34h-1.91V.19h3.64a4.66 4.66 0 011.94.37 2.89 2.89 0 010 5.33l1.88 2.7zm-.49-6.44a2 2 0 00-1.33-.38h-1.58V4.7h1.58a2 2 0 001.33-.38 1.33 1.33 0 00.46-1.08 1.31 1.31 0 00-.46-1.13zm5.18-2h2v8.44h-2zm6.82 7.98a4.13 4.13 0 01-1.64-1.54 4.55 4.55 0 010-4.48A4.15 4.15 0 0150.26.56 4.86 4.86 0 0152.59 0a4.78 4.78 0 012 .39 3.89 3.89 0 011.49 1.1l-1.25 1.15a2.7 2.7 0 00-2.11-1 2.82 2.82 0 00-1.4.34 2.5 2.5 0 00-.95 1 3 3 0 000 2.78 2.41 2.41 0 00.95 1 2.82 2.82 0 001.4.35 2.69 2.69 0 002.11-1l1.25 1.15a3.94 3.94 0 01-1.49 1.12 5 5 0 01-2 .38 4.71 4.71 0 01-2.33-.63zm13.66-1.38h-3.9l-.75 1.8h-2l3.75-8.4h1.92l3.75 8.4h-2zm-.61-1.48l-1.34-3.21-1.33 3.21zM76.44.15v8.44h-1.59l-4.19-5.1v5.1h-1.92V.19h1.7l4.17 5.1V.19zm-68 19.19a2.13 2.13 0 01.4 1.32 1.91 1.91 0 01-.86 1.69 4.33 4.33 0 01-2.5.6H1.14v-8.36h4.1a4 4 0 012.36.59 1.84 1.84 0 01.82 1.59 2 2 0 01-.29 1.09 2.07 2.07 0 01-.82.76 2.28 2.28 0 011.13.72zm-5.37-3.33v2H5a2 2 0 001.1-.25.86.86 0 00.37-.74.84.84 0 00-.37-.74 2 2 0 00-1.1-.25zm3.43 5.22a.87.87 0 00.39-.78c0-.69-.52-1-1.55-1H3.07v2.07h2.27a2.15 2.15 0 001.1-.29zm12.68.16v1.56h-6.5v-8.36h6.35v1.56h-4.42v1.82h3.9v1.51h-3.9v1.95zm9.48-.24h-3.9l-.74 1.8h-2l3.74-8.4h1.92l3.76 8.4h-2zm-.61-1.48l-1.33-3.21-1.28 3.21zm7.39 2.43a3.85 3.85 0 01-1-2.85v-4.66h2v4.63c0 1.5.62 2.26 1.87 2.26a1.78 1.78 0 001.39-.55 2.53 2.53 0 00.48-1.71v-4.63h1.92v4.7a3.89 3.89 0 01-1 2.85 4.47 4.47 0 01-5.61 0zm12.55-5.97h-2.68v-1.54h7.32v1.58h-2.69v6.82h-1.95zm11.96 3.84v3H58v-3l-3.25-5.4h2.07l2.24 3.73 2.24-3.73h1.91zM6.77 33.02h1.78v3.4a5 5 0 01-1.58.8 6.32 6.32 0 01-1.82.27 4.83 4.83 0 01-2.35-.56 4.1 4.1 0 01-1.63-1.54 4.48 4.48 0 010-4.48 4 4 0 011.65-1.55 5 5 0 012.37-.56 5.09 5.09 0 012 .38 3.85 3.85 0 011.52 1.08l-1.27 1.15a3 3 0 00-3.6-.61 2.37 2.37 0 00-1 .94 2.73 2.73 0 00-.35 1.41 2.69 2.69 0 00.35 1.39 2.37 2.37 0 001 .95 2.86 2.86 0 001.41.35 3.12 3.12 0 001.51-.36zm10.13 4.33l-1.62-2.34H13.5v2.34h-1.95v-8.4h3.64a4.66 4.66 0 011.94.37 2.89 2.89 0 010 5.33l1.88 2.7zm-.49-6.44a2 2 0 00-1.33-.38H13.5v2.93h1.58a2 2 0 001.33-.38 1.33 1.33 0 00.46-1.08 1.31 1.31 0 00-.43-1.09zm6.87 6.02a4.35 4.35 0 01-1.64-6 4.09 4.09 0 011.64-1.55 5.15 5.15 0 014.71 0 4.15 4.15 0 011.64 1.55 4.3 4.3 0 01-1.64 6 5.23 5.23 0 01-4.71 0zm3.7-1.44a2.32 2.32 0 00.94-.95 2.94 2.94 0 000-2.78 2.41 2.41 0 00-.94-1 2.83 2.83 0 00-2.69 0 2.48 2.48 0 00-.94 1 3 3 0 000 2.78 2.39 2.39 0 00.94.95 2.76 2.76 0 002.69 0zm6.85 1.01a3.85 3.85 0 01-1-2.85v-4.7h1.94v4.64c0 1.5.63 2.26 1.87 2.26a1.76 1.76 0 001.39-.55 2.53 2.53 0 00.48-1.71v-4.63h1.93v4.7a3.86 3.86 0 01-1 2.85 4.45 4.45 0 01-5.6 0zm15.3-7.18a2.81 2.81 0 011.26 1.06 2.85 2.85 0 01.45 1.62 2.89 2.89 0 01-.4 1.59 2.81 2.81 0 01-1.26 1.06 4.83 4.83 0 01-1.94.36h-1.69v2.32H43.6v-8.4h3.64a4.66 4.66 0 011.89.39zm-.72 3.75a1.3 1.3 0 00.46-1.07 1.31 1.31 0 00-.46-1.09 2 2 0 00-1.33-.38H45.5v2.92h1.58a2 2 0 001.36-.38z" fill="#1d1d1b"/></svg>