<svg id="Слой_1" data-name="Слой 1" xmlns="http://www.w3.org/2000/svg" viewBox="0 0 53.58 53.77"><defs><style>.cls-1{fill:#010101}</style></defs><path class="cls-1" d="M51.66 77.26a26.6 26.6 0 01-18.95-7.87 27 27 0 010-38 26.56 26.56 0 0118.95-7.89 26.56 26.56 0 0119 7.87 27 27 0 010 38 26.6 26.6 0 01-19 7.89zm0-51.09a24 24 0 00-17.06 7.09 24.29 24.29 0 000 34.24 24.07 24.07 0 0034.12 0 24.29 24.29 0 000-34.24 23.93 23.93 0 00-17.06-7.09z" transform="translate(-24.87 -23.5)"/><path class="cls-1" d="M41.25 62.16a1.34 1.34 0 01-1-2.28L61.13 39A1.33 1.33 0 1163 40.87l-20.81 20.9a1.33 1.33 0 01-.94.39z" transform="translate(-24.87 -23.5)"/><path class="cls-1" d="M62.08 62.16a1.33 1.33 0 01-.95-.39L40.3 40.87A1.33 1.33 0 1142.19 39L63 59.88a1.34 1.34 0 010 1.89 1.33 1.33 0 01-.92.39z" transform="translate(-24.87 -23.5)"/></svg>