<svg xmlns="http://www.w3.org/2000/svg" width="34.063" height="24.844"><defs><filter id="a" x="850.656" y="724.125" width="34.063" height="24.844" filterUnits="userSpaceOnUse"><feFlood result="flood" flood-color="#4b4e53"/><feComposite result="composite" operator="in" in2="SourceGraphic"/><feBlend result="blend" in2="SourceGraphic"/></filter></defs><path data-name="Forma 1" d="M882.6 724.111h-29.825a2.1 2.1 0 00-2.13 2.073v20.727a2.1 2.1 0 002.13 2.072H882.6a2.1 2.1 0 002.13-2.072v-20.727a2.1 2.1 0 00-2.13-2.073zm-19.854 14.566l4.946 3.27 4.918-3.295 8.484 8.259h-26.813l8.464-8.234zm-9.97 6.768V732.08l8.176 5.408zm21.615-7.987l8.209-5.5v13.482zm8.209-11.274v3.354l-.046-.063-14.871 9.962-14.907-9.86v-3.393H882.6z" transform="translate(-850.656 -724.125)" fill-rule="evenodd" filter="url(#a)"/></svg>