<svg width="274" height="274" xmlns="http://www.w3.org/2000/svg"><g fill="#000105" fill-rule="evenodd"><path d="M208.81 49.814c-8.834 0-15.997 7.163-15.997 15.996 0 8.84 7.163 16.004 15.996 16.004 8.841 0 16.004-7.164 16.004-16.004 0-8.833-7.163-15.996-16.004-15.996M138 180c-23.711 0-43-19.289-43-43.008C95 113.29 114.289 94 138 94s43 19.289 43 42.992c0 23.72-19.289 43.008-43 43.008zm-.004-110C101.05 70 71 100.058 71 136.996 71 173.942 101.05 204 137.996 204S205 173.942 205 136.996C205 100.058 174.942 70 137.996 70z"/><path d="M82.146 26C51.185 26 26 51.192 26 82.161v108.685C26 221.808 51.185 247 82.146 247H190.83c30.97 0 56.169-25.192 56.169-56.154V82.161C247 51.192 221.8 26 190.831 26H82.146zm109.146 247H82.693C37.647 273 1 236.346 1 191.302V82.706C1 37.654 37.647 1 82.693 1h108.599C236.337 1 273 37.654 273 82.706v108.596C273 236.346 236.337 273 191.292 273z"/></g></svg>