<svg id="Слой_1" data-name="Слой 1" xmlns="http://www.w3.org/2000/svg" viewBox="0 0 53.28 53.26"><defs><style>.cls-1{fill:#010101}</style></defs><path class="cls-1" d="M48.63 70A23.64 23.64 0 0125 46.53 23.13 23.13 0 0131.8 30a23.57 23.57 0 0140.07 16.71A23.2 23.2 0 0148.63 70zm-.39-44.19a20.52 20.52 0 00-20.59 20.71A20.93 20.93 0 0063.2 61.38a20.5 20.5 0 006-14.66 21 21 0 00-21-20.87z" transform="translate(-25 -23.2)"/><path class="cls-1" d="M77 76.46a1.33 1.33 0 01-.94-.39L63.2 63.25a1.32 1.32 0 111.87-1.87L77.89 74.2a1.32 1.32 0 010 1.87 1.3 1.3 0 01-.89.39z" transform="translate(-25 -23.2)"/></svg>