<svg xmlns="http://www.w3.org/2000/svg" width="33.09" height="33.125"><defs><filter id="a" x="1184.16" y="720.469" width="33.09" height="33.125" filterUnits="userSpaceOnUse"><feFlood result="flood" flood-color="#4b4e53"/><feComposite result="composite" operator="in" in2="SourceGraphic"/><feBlend result="blend" in2="SourceGraphic"/></filter></defs><path data-name="Forma 1" d="M1197.55 728.053c-.43-4.965-5.6-7.4-5.82-7.5a1.119 1.119 0 00-.66-.088c-5.97.991-6.87 4.472-6.9 4.617a1.148 1.148 0 00.02.61c7.12 22.13 21.93 26.23 26.79 27.581l.92.265.35.052.47-.1c.15-.069 3.66-1.726 4.52-7.138a1.1 1.1 0 00-.11-.69 10.656 10.656 0 00-7.01-4.893 1.1 1.1 0 00-1 .238c-1.61 1.375-3.83 2.843-4.79 2.993-6.43-3.147-10.02-9.188-10.16-10.334-.08-.644 1.4-2.906 3.09-4.746a1.14 1.14 0 00.29-.867z" transform="translate(-1184.16 -720.469)" fill-rule="evenodd" filter="url(#a)"/></svg>