<svg width="331" height="273" xmlns="http://www.w3.org/2000/svg"><path d="M329.293 33.421c-10.476 4.742-22.072 7.62-33.378 9.529 5.367-.909 13.25-10.636 16.407-14.575 4.826-6.001 8.82-12.842 11.077-20.224.29-.58.511-1.306-.076-1.741-.717-.29-1.19-.138-1.761.153-12.618 6.771-25.678 11.68-39.576 15.154-1.144.29-2.006 0-2.73-.717-1.151-1.306-2.234-2.527-3.453-3.543-5.848-4.978-12.107-8.879-19.175-11.765-9.263-3.779-19.41-5.382-29.39-4.741-9.729.634-19.266 3.382-27.89 7.887-8.645 4.527-16.36 10.818-22.505 18.415-6.351 7.848-11.032 17.117-13.434 26.943-2.31 9.482-2.127 18.865-.709 28.447.206 1.595.069 1.809-1.372 1.595-54.344-8.1-99.387-27.569-135.96-69.3-1.585-1.81-2.447-1.81-3.75.137C5.615 39.094 13.376 77.68 33.374 96.652c2.668 2.527 5.405 5.054 8.356 7.36-1.083.221-14.38-1.221-26.242-7.36-1.586-1.008-2.379-.435-2.524 1.374-.144 2.596.077 4.986.435 7.796 3.065 24.347 19.906 46.87 42.969 55.657 2.737 1.152 5.771 2.168 8.714 2.672-5.253 1.153-10.666 1.977-25.73.794-1.876-.359-2.593.58-1.876 2.382 11.329 30.905 35.764 40.105 54.07 45.335 2.446.435 4.901.435 7.356 1.008-.152.221-.297.221-.442.435-6.069 9.268-27.11 16.162-36.923 19.598-17.817 6.238-37.228 9.047-56.067 7.184-3.02-.442-3.652-.404-4.468 0-.823.512-.106 1.237.862 2.016 3.827 2.535 7.715 4.772 11.687 6.94 11.963 6.344 24.435 11.406 37.48 15.017 67.358 18.63 143.248 4.94 193.826-45.388 39.72-39.525 53.65-94.022 53.65-148.595 0-2.13 2.516-3.313 4.002-4.443 10.339-7.772 18.68-17.079 26.387-27.47 1.723-2.328 1.746-4.405 1.746-5.26v-.283c0-.878-.023-.61-1.35 0" fill="#fff" fill-rule="evenodd"/></svg>