<svg id="Слой_1" data-name="Слой 1" xmlns="http://www.w3.org/2000/svg" viewBox="0 0 76.49 37.49"><defs><style>.cls-1{fill:#1d1d1b;}</style></defs><path class="cls-1" d="M130.19,270.16h-3.9l-.74,1.8h-2l3.74-8.4h1.92L133,272h-2Zm-.61-1.48-1.33-3.21-1.33,3.21Z" transform="translate(-123.56 -263.41)"/><path class="cls-1" d="M142.7,272l0-5-2.47,4.15h-.88l-2.45-4V272h-1.83v-8.4h1.61l3.14,5.22,3.1-5.22h1.6l0,8.4Z" transform="translate(-123.56 -263.41)"/><path class="cls-1" d="M154.21,270.4V272h-6.5v-8.4h6.35v1.56h-4.42v1.82h3.9v1.51h-3.9v1.95Z" transform="translate(-123.56 -263.41)"/><path class="cls-1" d="M162.31,272l-1.62-2.34h-1.78V272H157v-8.4h3.64a4.66,4.66,0,0,1,1.94.37,2.89,2.89,0,0,1,0,5.33l1.88,2.7Zm-.49-6.44a2,2,0,0,0-1.33-.38h-1.58v2.93h1.58a2,2,0,0,0,1.33-.38,1.33,1.33,0,0,0,.46-1.08A1.31,1.31,0,0,0,161.82,265.52Z" transform="translate(-123.56 -263.41)"/><path class="cls-1" d="M167,263.56h2V272h-2Z" transform="translate(-123.56 -263.41)"/><path class="cls-1" d="M173.82,271.54a4.13,4.13,0,0,1-1.64-1.54,4.55,4.55,0,0,1,0-4.48,4.15,4.15,0,0,1,1.64-1.55,4.86,4.86,0,0,1,2.33-.56,4.78,4.78,0,0,1,2,.39,3.89,3.89,0,0,1,1.49,1.1l-1.25,1.15a2.7,2.7,0,0,0-2.11-1,2.82,2.82,0,0,0-1.4.34,2.5,2.5,0,0,0-.95,1,3,3,0,0,0,0,2.78,2.41,2.41,0,0,0,.95,1,2.82,2.82,0,0,0,1.4.35,2.69,2.69,0,0,0,2.11-1l1.25,1.15a3.94,3.94,0,0,1-1.49,1.12,5,5,0,0,1-2,.38A4.71,4.71,0,0,1,173.82,271.54Z" transform="translate(-123.56 -263.41)"/><path class="cls-1" d="M187.48,270.16h-3.9l-.75,1.8h-2l3.75-8.4h1.92l3.75,8.4h-2Zm-.61-1.48-1.34-3.21-1.33,3.21Z" transform="translate(-123.56 -263.41)"/><path class="cls-1" d="M200,263.56V272h-1.59l-4.19-5.1V272h-1.92v-8.4H194l4.17,5.1v-5.1Z" transform="translate(-123.56 -263.41)"/><path class="cls-1" d="M132,282.75a2.13,2.13,0,0,1,.4,1.32,1.91,1.91,0,0,1-.86,1.69,4.33,4.33,0,0,1-2.5.6h-4.34V278h4.1a4,4,0,0,1,2.36.59,1.84,1.84,0,0,1,.82,1.59,2,2,0,0,1-.29,1.09,2.07,2.07,0,0,1-.82.76A2.28,2.28,0,0,1,132,282.75Zm-5.37-3.33v2h1.93a2,2,0,0,0,1.1-.25.86.86,0,0,0,.37-.74.84.84,0,0,0-.37-.74,2,2,0,0,0-1.1-.25Zm3.43,5.22a.87.87,0,0,0,.39-.78c0-.69-.52-1-1.55-1h-2.27v2.07h2.27A2.15,2.15,0,0,0,130,284.64Z" transform="translate(-123.56 -263.41)"/><path class="cls-1" d="M142.74,284.8v1.56h-6.5V278h6.35v1.56h-4.42v1.82h3.9v1.51h-3.9v1.95Z" transform="translate(-123.56 -263.41)"/><path class="cls-1" d="M152.22,284.56h-3.9l-.74,1.8h-2l3.74-8.4h1.92l3.76,8.4h-2Zm-.61-1.48-1.33-3.21L149,283.08Z" transform="translate(-123.56 -263.41)"/><path class="cls-1" d="M159,285.51a3.85,3.85,0,0,1-1-2.85V278H160v4.63c0,1.5.62,2.26,1.87,2.26a1.78,1.78,0,0,0,1.39-.55,2.53,2.53,0,0,0,.48-1.71V278h1.92v4.7a3.89,3.89,0,0,1-1,2.85,4.47,4.47,0,0,1-5.61,0Z" transform="translate(-123.56 -263.41)"/><path class="cls-1" d="M171.55,279.54h-2.68V278h7.32v1.58H173.5v6.82h-1.95Z" transform="translate(-123.56 -263.41)"/><path class="cls-1" d="M183.51,283.38v3h-1.95v-3l-3.25-5.4h2.07l2.24,3.73,2.24-3.73h1.91Z" transform="translate(-123.56 -263.41)"/><path class="cls-1" d="M130.33,296.43h1.78v3.4a5,5,0,0,1-1.58.8,6.32,6.32,0,0,1-1.82.27,4.83,4.83,0,0,1-2.35-.56,4.1,4.1,0,0,1-1.63-1.54,4.48,4.48,0,0,1,0-4.48,4,4,0,0,1,1.65-1.55,5,5,0,0,1,2.37-.56,5.09,5.09,0,0,1,2,.38,3.85,3.85,0,0,1,1.52,1.08L131,294.82a3,3,0,0,0-3.6-.61,2.37,2.37,0,0,0-1,.94,2.73,2.73,0,0,0-.35,1.41,2.69,2.69,0,0,0,.35,1.39,2.37,2.37,0,0,0,1,.95,2.86,2.86,0,0,0,1.41.35,3.12,3.12,0,0,0,1.51-.36Z" transform="translate(-123.56 -263.41)"/><path class="cls-1" d="M140.46,300.76l-1.62-2.34h-1.78v2.34h-1.95v-8.4h3.64a4.66,4.66,0,0,1,1.94.37,2.89,2.89,0,0,1,0,5.33l1.88,2.7Zm-.49-6.44a2,2,0,0,0-1.33-.38h-1.58v2.93h1.58a2,2,0,0,0,1.33-.38,1.33,1.33,0,0,0,.46-1.08A1.31,1.31,0,0,0,140,294.32Z" transform="translate(-123.56 -263.41)"/><path class="cls-1" d="M146.84,300.34a4.35,4.35,0,0,1-1.64-6,4.09,4.09,0,0,1,1.64-1.55,5.15,5.15,0,0,1,4.71,0,4.15,4.15,0,0,1,1.64,1.55,4.3,4.3,0,0,1-1.64,6,5.23,5.23,0,0,1-4.71,0Zm3.7-1.44a2.32,2.32,0,0,0,.94-.95,2.94,2.94,0,0,0,0-2.78,2.41,2.41,0,0,0-.94-1,2.83,2.83,0,0,0-2.69,0,2.48,2.48,0,0,0-.94,1,3,3,0,0,0,0,2.78,2.39,2.39,0,0,0,.94.95,2.76,2.76,0,0,0,2.69,0Z" transform="translate(-123.56 -263.41)"/><path class="cls-1" d="M157.39,299.91a3.85,3.85,0,0,1-1-2.85v-4.7h1.94V297c0,1.5.63,2.26,1.87,2.26a1.76,1.76,0,0,0,1.39-.55,2.53,2.53,0,0,0,.48-1.71v-4.63H164v4.7a3.86,3.86,0,0,1-1,2.85,4.45,4.45,0,0,1-5.6,0Z" transform="translate(-123.56 -263.41)"/><path class="cls-1" d="M172.69,292.73a2.81,2.81,0,0,1,1.26,1.06,2.85,2.85,0,0,1,.45,1.62A2.89,2.89,0,0,1,174,297a2.81,2.81,0,0,1-1.26,1.06,4.83,4.83,0,0,1-1.94.36h-1.69v2.32h-1.95v-8.4h3.64A4.66,4.66,0,0,1,172.69,292.73Zm-.72,3.75a1.3,1.3,0,0,0,.46-1.07,1.31,1.31,0,0,0-.46-1.09,2,2,0,0,0-1.33-.38h-1.58v2.92h1.58A2,2,0,0,0,172,296.48Z" transform="translate(-123.56 -263.41)"/></svg>